<svg id="SvgjsSvg1011" width="288" height="288" xmlns="http://www.w3.org/2000/svg" version="1.1" xmlns:xlink="http://www.w3.org/1999/xlink" xmlns:svgjs="http://svgjs.com/svgjs"><defs id="SvgjsDefs1012"></defs><g id="SvgjsG1013"><svg xmlns="http://www.w3.org/2000/svg" enable-background="new 0 0 18 18" viewBox="0 0 18 18" width="288" height="288"><path fill="none" d="M-1.8-1.8h21.6v21.6H-1.8V-1.8z"></path><path fill="#616161" d="M16.1,1.9v3.4h-5.2V1.9H16.1 M7.1,1.9v7H1.9v-7H7.1 M16.1,9.1v7h-5.2v-7H16.1 M7.1,12.7v3.4H1.9v-3.4H7.1
			 M17.1,0.9H9.9v5.4h7.2V0.9L17.1,0.9z M8.1,0.9H0.9v9h7.2V0.9L8.1,0.9z M17.1,8.1H9.9v9h7.2V8.1L17.1,8.1z M8.1,11.7H0.9v5.4h7.2
			V11.7L8.1,11.7z" class="colorafafaf svgShape"></path></svg></g></svg>